<svg xmlns="http://www.w3.org/2000/svg" width="28" height="28" viewBox="0 0 28 28">
  <g id="Group_1" data-name="Group 1" transform="translate(-16 -16)">
    <rect id="Rectangle_2" data-name="Rectangle 2" width="8" height="2" transform="translate(26 23)" fill="#fff"/>
    <rect id="Rectangle_3" data-name="Rectangle 3" width="8" height="2" transform="translate(26 32)" fill="#fff"/>
    <rect id="Rectangle_4" data-name="Rectangle 4" width="8" height="2" transform="translate(26 26)" fill="#fff"/>
    <rect id="Rectangle_5" data-name="Rectangle 5" width="8" height="2" transform="translate(26 29)" fill="#fff"/>
    <path id="Path_1" data-name="Path 1" d="M34,16.5a.5.5,0,0,0-.5-.5h-7a.5.5,0,0,0-.5.5V22h8Z" fill="#fff"/>
    <path id="Path_2" data-name="Path 2" d="M43.5,43H42V39.949a2.5,2.5,0,1,0-1,0V43H38V19.5a.5.5,0,0,0-.5-.5H35V43H34V35H26v8H25V19H22.5a.5.5,0,0,0-.5.5V43H21V29.928l-3.644,1.093A.5.5,0,0,0,17,31.5V43h-.5a.5.5,0,0,0,0,1h27a.5.5,0,0,0,0-1ZM32,43H31V39H29v4H28V38.5a.5.5,0,0,1,.5-.5h3a.5.5,0,0,1,.5.5Z" fill="#fff"/>
  </g>
</svg>
