<svg xmlns="http://www.w3.org/2000/svg" width="56.568" height="57.532" viewBox="0 0 56.568 57.532">
  <g id="Group_35" data-name="Group 35" transform="translate(-288.644 -199.762)">
    <g id="Layer_6" data-name="Layer 6" transform="translate(136.402 144.761)">
      <g id="Group_13" data-name="Group 13" transform="translate(197.584 75.552)">
        <g id="Group_12" data-name="Group 12" transform="translate(0 0)">
          <path id="Path_8" data-name="Path 8" d="M447.665,140.915h-1.232V103.964l1.232.513Z" transform="translate(-436.439 -103.964)" fill="#2e3034"/>
          <rect id="Rectangle_6" data-name="Rectangle 6" width="9.996" height="36.951" fill="#2e3034"/>
        </g>
      </g>
      <g id="Group_8" data-name="Group 8" transform="translate(190.23 70.256)">
        <g id="Group_7" data-name="Group 7" transform="translate(0 0)">
          <path id="Path_7" data-name="Path 7" d="M503.462,112.532h-1.231V70.285l1.231.512Z" transform="translate(-492.235 -70.285)" fill="#616d70"/>
          <rect id="Rectangle_4" data-name="Rectangle 4" width="9.996" height="42.247" fill="#616d70"/>
        </g>
      </g>
      <g id="Group_18" data-name="Group 18" transform="translate(182.825 80.879)">
        <g id="Group_17" data-name="Group 17" transform="translate(0 0)">
          <path id="Path_9" data-name="Path 9" d="M392.538,169.3h-1.232V137.644l1.232.513Z" transform="translate(-381.312 -137.644)" fill="#222527"/>
          <rect id="Rectangle_8" data-name="Rectangle 8" width="9.996" height="31.655" fill="#222527"/>
        </g>
      </g>
      <g id="Group_28" data-name="Group 28" transform="translate(175.351 91.414)">
        <g id="Group_27" data-name="Group 27" transform="translate(0)">
          <path id="Path_11" data-name="Path 11" d="M281.139,225.923h-1.232V204.834l1.232.513Z" transform="translate(-269.912 -204.834)" fill="#676f73"/>
          <rect id="Rectangle_12" data-name="Rectangle 12" width="9.996" height="21.089" fill="#676f73"/>
        </g>
      </g>
      <g id="Group_23" data-name="Group 23" transform="translate(167.964 86.145)">
        <g id="Group_22" data-name="Group 22">
          <path id="Path_10" data-name="Path 10" d="M336.488,197.682h-1.232V171.323l1.232.513Z" transform="translate(-325.261 -171.323)" fill="#494e50"/>
          <rect id="Rectangle_10" data-name="Rectangle 10" width="9.996" height="26.359" fill="#494e50"/>
        </g>
      </g>
      <g id="Group_33" data-name="Group 33" transform="translate(160.522 96.74)">
        <g id="Group_32" data-name="Group 32">
          <path id="Path_12" data-name="Path 12" d="M225.315,254.306h-1.232V238.513l1.232.513Z" transform="translate(-214.088 -238.513)" fill="#373b3c"/>
          <rect id="Rectangle_14" data-name="Rectangle 14" width="9.996" height="15.793" fill="#373b3c"/>
        </g>
      </g>
    </g>
    <g id="Group_34" data-name="Group 34" transform="translate(174.771 66.914)">
      <path id="Path_35" data-name="Path 35" d="M119.9,71.422a.379.379,0,0,0-.043-.412.329.329,0,0,0-.37-.123l-5.772,1.69c-.084,0-.207.123-.248.2a.319.319,0,0,0,.082.331l.7.907L96.809,87.627,87.16,83.545l-16.123,15.3a.526.526,0,0,0-.164.371.45.45,0,0,0,.164.371l.743.784a.522.522,0,0,0,.372.164.444.444,0,0,0,.369-.164L87.613,86.059,97.137,90.1l18.433-14.39.7.907a.316.316,0,0,0,.288.123.346.346,0,0,0,.288-.164Z" transform="translate(44 63)" fill="#090909" stroke="#000" stroke-width="2" fill-rule="evenodd"/>
    </g>
  </g>
</svg>
