<svg xmlns="http://www.w3.org/2000/svg" width="24.726" height="27.223" viewBox="0 0 24.726 27.223">
  <g id="Group_42" data-name="Group 42" transform="translate(-2227.036 -286.136)">
    <path id="Path_92" data-name="Path 92" d="M2383.2,397.95l3.1-1.793-7.07-4.082a1.04,1.04,0,0,0-1.035,0l-2.588,1.494Z" transform="translate(-140.44 -100.01)"/>
    <path id="Path_93" data-name="Path 93" d="M2301.314,442.457l3.1-1.793-7.588-4.38-3.1,1.792Z" transform="translate(-63.04 -141.929)"/>
    <path id="Path_94" data-name="Path 94" d="M2288.729,495.2l-7.588-4.381v7.707a1.039,1.039,0,0,0,.518.9l7.07,4.082Z" transform="translate(-51.144 -193.478)"/>
    <path id="Path_95" data-name="Path 95" d="M2452.514,490.818l-7.587,4.381v8.3l7.07-4.082a1.039,1.039,0,0,0,.518-.9Z" transform="translate(-205.965 -193.478)"/>
    <path id="Path_96" data-name="Path 96" d="M2227.5,306.42a.222.222,0,0,0-.378.231,14.065,14.065,0,0,0,2.259,3,13.885,13.885,0,0,0,3.055,2.231,13.084,13.084,0,0,0,11.18.445,14.581,14.581,0,0,0,3.325-2.03,14.3,14.3,0,0,0,2.613-2.931,13.489,13.489,0,0,0,2.21-7.531,14.6,14.6,0,0,0-.624-3.963,15.065,15.065,0,0,0-1.759-3.633,14.86,14.86,0,0,0-2.759-2.99,15.09,15.09,0,0,0-3.533-2.072,15.367,15.367,0,0,0-4.008-.964,14.015,14.015,0,0,0-7.718,1.519l-.691-1.4a.347.347,0,0,0-.609-.025l-2.976,4.975a.347.347,0,0,0,.258.523l5.759.668a.347.347,0,0,0,.351-.5l-.533-1.081a10.764,10.764,0,0,1,5.95-1.533,11.037,11.037,0,0,1,6.066,2.085,12.213,12.213,0,0,1,2.35,2.291,12.623,12.623,0,0,1,1.6,2.9,12.334,12.334,0,0,1,.692,3.266,11.5,11.5,0,0,1-1.553,6.513,12.609,12.609,0,0,1-2.141,2.671,13.081,13.081,0,0,1-2.852,1.953,12.881,12.881,0,0,1-3.32,1.048,13.1,13.1,0,0,1-3.511.038,13.392,13.392,0,0,1-3.4-.992,13.164,13.164,0,0,1-2.987-1.95,13.549,13.549,0,0,1-2.311-2.756Z"/>
  </g>
</svg>
