<svg xmlns="http://www.w3.org/2000/svg" width="41.489" height="48.746" viewBox="0 0 41.489 48.746">
  <path id="AdobeStock_65773148" d="M258.406,230.972h-1.534c-.529-7.129-3.431-12.21-9.181-15.4-1.614-.968-2.583-2.095-2.583-3.7s.97-2.735,2.583-3.7c5.749-3.186,8.651-8.267,9.181-15.4h1.534a2.677,2.677,0,0,0,0-5.275H221.355a2.677,2.677,0,0,0,0,5.275h1.534c.53,7.129,3.432,12.21,9.181,15.4,1.613.968,2.584,2.215,2.584,3.7s-.97,2.735-2.583,3.7c-5.749,3.186-8.651,8.267-9.181,15.4h-1.534a2.677,2.677,0,0,0,0,5.275h37.051a2.677,2.677,0,0,0,0-5.275Zm-7.443,0a3.5,3.5,0,0,1-3.15-2.072c-1.332-4.075-4.868-7.451-8.223-7.451s-6.89,3.376-8.223,7.451a3.5,3.5,0,0,1-3.15,2.072h-1.944c.373-5.838,2.783-9.953,7.087-12.5,2.9-1.772,4.518-3.867,4.518-6.6s-1.614-4.829-4.518-6.6c-4.3-2.544-6.714-6.659-7.087-12.5h27.212c-.373,5.838-2.783,9.953-7.087,12.5-2.9,1.772-4.518,3.866-4.518,6.6s1.613,4.829,4.518,6.6c4.3,2.544,6.714,6.659,7.087,12.5Zm-5.823-29.05a11.715,11.715,0,0,1-5.235-.71,27.856,27.856,0,0,0-7.209-1.523c-.69-.043-.824.463-.586.854a14.159,14.159,0,0,0,2.728,2.231,13.93,13.93,0,0,1,5.043,5.126c1.14-2.346,2.394-3.372,5.542-5.436l.006-.01C245.719,202.015,245.41,201.9,245.14,201.922Zm-5.26,13.008c-.623,0-1.128,2.176-1.128,2.847a1.131,1.131,0,1,0,2.257,0C241.009,217.106,240.5,214.93,239.88,214.93Z" transform="translate(-219.136 -187.501)" fill="#012"/>
</svg>
